<?xml version="1.0" standalone="no"?>
<!DOCTYPE svg PUBLIC "-//W3C//DTD SVG 20010904//EN"
 "http://www.w3.org/TR/2001/REC-SVG-20010904/DTD/svg10.dtd">
<svg version="1.0" xmlns="http://www.w3.org/2000/svg"
 width="200.000000pt" height="200.000000pt" viewBox="0 0 200.000000 200.000000"
 preserveAspectRatio="xMidYMid meet">

<g transform="translate(0.000000,200.000000) scale(0.100000,-0.100000)"
fill="#000000" stroke="none">
<path d="M1581 1704 c-78 -21 -147 -62 -194 -115 l-42 -46 -65 42 c-341 218
-770 144 -1020 -175 -26 -33 -30 -42 -15 -36 11 5 46 11 78 14 54 4 62 8 100
49 55 60 149 126 233 164 178 81 406 79 579 -5 118 -57 115 -50 63 -142 -25
-43 -85 -153 -133 -244 -162 -304 -274 -461 -364 -511 -25 -14 -29 -18 -11
-13 104 27 220 170 447 553 174 292 219 342 338 376 41 12 129 20 168 16 5 -1
-17 -49 -47 -108 -31 -58 -53 -103 -49 -99 4 3 46 68 93 144 72 113 84 138 71
144 -29 12 -175 7 -230 -8z"/>
<path d="M257 1325 c-76 -26 -110 -84 -137 -229 -18 -95 -8 -261 20 -351 64
-206 206 -373 395 -465 111 -54 197 -73 330 -74 84 0 128 5 189 22 121 35 245
103 329 183 l72 68 -80 -26 c-204 -64 -450 -31 -662 88 -113 64 -255 208 -310
314 -56 110 -77 184 -70 257 6 71 47 159 85 184 l27 18 -50 13 c-63 16 -90 16
-138 -2z"/>
<path d="M1589 1210 c-92 -16 -137 -51 -276 -219 -202 -242 -273 -318 -326
-347 -47 -26 -61 -29 -149 -29 -54 0 -98 -1 -98 -2 0 -11 155 -89 225 -112
261 -87 491 -51 627 98 54 59 221 267 226 281 5 13 -95 40 -150 40 -26 0 -48
2 -48 4 0 3 45 64 100 137 71 94 97 135 88 140 -22 11 -170 18 -219 9z"/>
</g>
</svg>
